<svg id="Layer_1" data-name="Layer 1" xmlns="http://www.w3.org/2000/svg" viewBox="0 0 876.49 667.41"><defs><style>.cls-1{fill:#2f2e41;}.cls-2{fill:#b88462;}.cls-3{fill:#0053c5;}.cls-4{fill:#f2f2f2;}.cls-5{fill:#e6e6e6;}.cls-6{fill:#fff;}.cls-7{fill:#e4e4e4;}.cls-8{fill:#231f20;isolation:isolate;opacity:0.16;}.cls-9{fill:#ffb8b8;}.cls-10{fill:#ccc;}</style></defs><path class="cls-1" d="M625.56,141.07c-1.66-12.14-3.73-25.17-12.29-33.93a28.79,28.79,0,0,0-40.71-.47c-.3.29-.6.59-.88.9-6.23,6.65-9,16-9.24,25.09s1.78,18.11,4,26.94a83.06,83.06,0,0,0,34.66-6.82,54.9,54.9,0,0,1,8.31-3.26c2.88-.74,4.94,1.11,7.63,2.4l1.47-2.82c1.21,2.24,5,1.58,6.3-.58S625.9,143.59,625.56,141.07Z"/><path class="cls-2" d="M575.82,192.31l3.45-17.61-25.86-11.19-46.22-22.15a10.27,10.27,0,1,0-8.55,11.74,11,11,0,0,0,1.11-.24l44,27.16Z"/><path class="cls-3" d="M558.46,189.33l18.73-19.14.37.11c.23.07,23.5,7.16,38.33,14.37a12.68,12.68,0,0,1,7,8,13.26,13.26,0,0,1-4.16,13.92A14.17,14.17,0,0,1,603.54,209Z"/><polygon class="cls-2" points="558.41 273.49 611.06 287.56 621.69 237.82 573.37 222.86 558.41 273.49"/><path class="cls-3" d="M617,260l-51.43-11.83-9.85-23.87a18.26,18.26,0,0,1,6.58-18.62l18.8-15.87,10.07-12.86-1.1-6.82a5.92,5.92,0,0,1,3.94-6.44l13.43-4.81a6.24,6.24,0,0,1,7.88,3.28l1.42,3.29,9.5,4.46a13.76,13.76,0,0,1,7.43,8.42,69.63,69.63,0,0,1-4,51.15Z"/><path class="cls-4" d="M159.51,513.4l-24.87-6.65a83.1,83.1,0,0,1-1.23-39.95c10.85,21.45,40,25.49,57.25,42.21a50,50,0,0,1,14.66,40.76l6,17.26a83.74,83.74,0,0,1-62.46-31.85,80.81,80.81,0,0,1-10.28-17.48C148.94,516.17,159.51,513.4,159.51,513.4Z"/><path class="cls-5" d="M468.49,571.88H224.74a24.66,24.66,0,0,1-24.64-24.64V224.47a24.66,24.66,0,0,1,24.64-24.64H468.49a24.67,24.67,0,0,1,24.64,24.64V547.24A24.67,24.67,0,0,1,468.49,571.88Z"/><path class="cls-6" d="M375.46,551.9H241.87a22.47,22.47,0,0,1-22.44-22.44V242.25a22.47,22.47,0,0,1,22.44-22.44H451.36a22.46,22.46,0,0,1,22.43,22.44V453.56A98.44,98.44,0,0,1,375.46,551.9Z"/><path class="cls-3" d="M430.46,275H262.77a5.47,5.47,0,0,1,0-10.94H430.46a5.47,5.47,0,0,1,0,10.94Z"/><path class="cls-3" d="M430.46,296.56H262.77a5.47,5.47,0,0,1,0-10.94H430.46a5.47,5.47,0,0,1,0,10.94Z"/><path class="cls-3" d="M335.46,318.17H262.77a5.47,5.47,0,0,1,0-10.94h72.71a5.47,5.47,0,0,1,0,10.94Z"/><path class="cls-7" d="M430.46,363.43H262.77a5.47,5.47,0,1,1,0-10.93H430.46a5.47,5.47,0,1,1,0,10.93h0Z"/><path class="cls-7" d="M430.46,385.05H262.77a5.47,5.47,0,0,1,0-10.94H430.46a5.47,5.47,0,0,1,0,10.94Z"/><path class="cls-7" d="M335.46,406.66H262.77a5.47,5.47,0,0,1,0-10.94h72.71a5.47,5.47,0,1,1,0,10.94Z"/><path class="cls-7" d="M430.46,451.92H262.77a5.47,5.47,0,0,1,0-10.94H430.46a5.47,5.47,0,0,1,0,10.94Z"/><path class="cls-7" d="M430.46,473.53H262.77a5.47,5.47,0,1,1,0-10.94H430.46a5.47,5.47,0,1,1,0,10.94Z"/><path class="cls-7" d="M335.46,495.14H262.77a5.47,5.47,0,1,1,0-10.94h72.69a5.47,5.47,0,1,1,0,10.94Z"/><circle class="cls-3" cx="481.1" cy="206.11" r="71.1"/><path class="cls-8" d="M481.1,267.36a71.09,71.09,0,0,1-70.91-66.09c-.11,1.65-.19,3.32-.19,5a71.1,71.1,0,0,0,142.2,0c0-1.68-.08-3.35-.2-5A71.08,71.08,0,0,1,481.1,267.36Z"/><path class="cls-2" d="M588,221.3l-15.13-9.66-19.88,20-37.52,34.91a10.27,10.27,0,1,0,7.79,12.25,10.45,10.45,0,0,0,.18-1.12l41.38-31Z"/><path class="cls-3" d="M578.85,236.36l-11-24.43.24-.31c.15-.19,15.27-19.24,27.4-30.41a12.64,12.64,0,0,1,10-3.54,13.27,13.27,0,0,1,11.44,9,14.19,14.19,0,0,1-3.3,15Z"/><circle class="cls-2" cx="588.75" cy="132.27" r="23.79"/><polygon class="cls-9" points="551.8 554.84 541.97 554.84 537.29 516.91 551.8 516.91 551.8 554.84"/><path class="cls-1" d="M557,571.88h-7l-1.26-6.66-3.22,6.66H526.75a4.21,4.21,0,0,1-2.39-7.67L539.3,553.9v-6.73l15.71.93Z"/><polygon class="cls-9" points="675.04 546.49 665.9 550.12 647.53 516.62 661.01 511.25 675.04 546.49"/><path class="cls-1" d="M686.16,560.39,679.61,563,676,557.28l-.53,7.38-17.38,6.92a4.2,4.2,0,0,1-5.05-6.24l10.06-15.11L660.59,544,675.53,539Z"/><path class="cls-1" d="M555.59,537.42H535.25l5.62-95.56-4.11-64.77V377l15.33-92.84a39.2,39.2,0,0,1,9.4-19.7l.18-.21L613,277l5.16,11.76c17.61,10.47,23.17,69.53,23.4,72.05L649,434.38l18.24,90.23-12.84,6.92-.22-.43-40.54-80.62-25.6-85L571.62,442Z"/><path class="cls-1" d="M618.21,133.39c-.84-5.53-1.72-11.1-3.7-16.31s-5.16-10.08-9.73-13c-7.24-4.67-16.61-3.77-24.73-1.08-6.28,2.07-12.4,5.23-16.83,10.31s-6.91,12.31-5.27,18.95l26-6.14-.95.67a20.93,20.93,0,0,1,11.16,14.55,21.69,21.69,0,0,1-4.57,18L607.28,153c3.64-1.3,7.55-2.79,9.71-6.1C619.49,143.07,618.91,138,618.21,133.39Z"/><path id="fd990326-c176-439f-9263-07fe4201e145-3" class="cls-10" d="M112,571.65H764.52a1.25,1.25,0,0,0,0-2.5H112a1.25,1.25,0,0,0,0,2.5Z"/><path class="cls-6" d="M462.18,170.19a6.34,6.34,0,0,0-6.32,6.31l0,56.86,25.27-9.47,25.26,9.47V176.51a6.36,6.36,0,0,0-6.31-6.32Z"/><polygon class="cls-3" points="462.18 176.51 500.05 176.51 500.05 224.24 481.1 217.14 462.15 224.24 462.18 176.51"/></svg>