<svg id="Layer_1" data-name="Layer 1" xmlns="http://www.w3.org/2000/svg" viewBox="0 0 836 437.46"><defs><style>.cls-1{fill:#a0616a;}.cls-2{fill:#ccc;}.cls-3{fill:#2f2e41;}.cls-4{fill:#3f3d56;}.cls-5{fill:#0053c5;}.cls-6{fill:#fff;}</style></defs><g id="f59d61bb-6173-4011-886f-cab752b15cf5"><path id="ea601028-2261-4201-a5c6-6d1fee0209f8-127" class="cls-1" d="M812.4,234.61a10.14,10.14,0,0,1-3.7-13.85,9.36,9.36,0,0,1,1-1.46L799.16,142l22,1.08,3.45,75.37a10.19,10.19,0,0,1-12.23,16.13Z"/><path id="bab8e504-63c3-4a02-b094-c521f4d0da0a-128" class="cls-2" d="M824.2,144.14a4.17,4.17,0,0,1-1.68,1.19l-19.79,7.55a4.15,4.15,0,0,1-5.28-2.2l-17.53-39.39a16.5,16.5,0,0,1-.81-11.65A16,16,0,0,1,791.3,88.72a15.22,15.22,0,0,1,6.58.09,16,16,0,0,1,11.46,10L824.92,140A4.18,4.18,0,0,1,824.2,144.14Z"/><path id="e3cfda6a-f51e-4c96-8af0-12d99ec512c5-129" class="cls-1" d="M721.08,423.19H707.39l-5-53.05,18.66.25Z"/><path id="a90fb924-173c-4f4a-b9ae-ede5dff37993-130" class="cls-3" d="M697.61,419.28H724v16.63H681a16.63,16.63,0,0,1,16.63-16.63Z"/><path id="f7d48866-455f-47a0-876b-9c2c9b7d2f2d-131" class="cls-1" d="M784.74,423.19H771l-6.51-52.8h20.21Z"/><path id="ae80d259-143f-4a2f-8815-2d5111ab51c8-132" class="cls-3" d="M761.27,419.28h26.4v16.63h-43a16.62,16.62,0,0,1,16.62-16.63h0Z"/><path id="b7aaac11-5418-4b5b-a747-2fb27f89cd88-133" class="cls-3" d="M786.46,404.4,765,402.81A5,5,0,0,1,760.3,398L755.51,299a3.91,3.91,0,0,0-7.73-.6l-20,97.61a5,5,0,0,1-5.33,4L703,398.41A5,5,0,0,1,698.4,393h0a.31.31,0,0,0,0-.1l18-180.32a5,5,0,0,1,6.06-4.41l68.58,14.91a5,5,0,0,1,4,5l-3.2,171.41a5,5,0,0,1-5,4.93Z"/><circle id="eccc2a78-7d3a-4be1-aa48-fb8bb5d1e30a" class="cls-1" cx="767.65" cy="34.38" r="27.43"/><path id="a0a57a86-6e42-4b50-b3a1-f8a38df428dd-134" class="cls-2" d="M725.09,226.49a24.56,24.56,0,0,1-8.15-18.84c0-39.42,34.13-127.5,35.2-130.24.1-.66,1-1,5.72-4.14s11.55-3.68,20.26-1.46a5,5,0,0,1,3.63,3.71l1.62,2.34a3.94,3.94,0,0,0,2.27,2.69c7,3,29.37,16.61,21.76,68-7.07,47.73-9.94,75.8-10.85,85.66a5,5,0,0,1-4.55,4.54c-3.44.3-9.36.71-16.4.71C759.27,239.46,736.87,237.26,725.09,226.49Z"/><path id="e2026d9f-0f48-4627-b939-bcbd235b248e-135" class="cls-1" d="M692.31,211.88A10.14,10.14,0,0,1,697,198.32a10.31,10.31,0,0,1,1.67-.65l34.28-70,17.68,13.16L711.46,205.3a10.19,10.19,0,0,1-19.14,6.58Z"/><path id="aa5178ad-b05d-4950-85b1-a624717fe499-136" class="cls-2" d="M752.52,143.33a4.11,4.11,0,0,1-2.06,0l-20.64-4.75a4.16,4.16,0,0,1-3.16-4.77l7.4-42.47a16.43,16.43,0,0,1,5.82-10.13A16,16,0,0,1,756.08,79a15.19,15.19,0,0,1,5.41,3.75,15.91,15.91,0,0,1,4,14.65l-10,42.9a4.18,4.18,0,0,1-2.92,3.05Z"/><path id="f1455aca-238f-491a-b535-1c1a045e39f4-137" class="cls-3" d="M761.22,59.16a11.82,11.82,0,0,1-3.17-10.48c1-5,1.52-8.28,1.63-9.47h0c.36-4.07-3.76-7.37-7.83-7.9l-.4,0,.31.3c.78.73,1.74,1.63,1.51,2.56-.14.57-.65,1-1.57,1.22-6.37,1.79-11.28.15-15.45-5.15a12.43,12.43,0,0,1-2.35-5.14c-1.49-7.32,2.49-13.56,6.08-17.5C743,4.3,747.76.36,753.83,0c4.71-.27,10.32,2.45,12,7.34a9.08,9.08,0,0,1,7.1-4A16.4,16.4,0,0,1,782,5.89c13.3,7.62,19,25.77,12.48,39.63-4.11,8.72-13,15.22-23.24,16.95a11.46,11.46,0,0,1-1.94.16,11.26,11.26,0,0,1-8.12-3.47Z"/></g><path id="f152a38b-6c6f-456c-96ce-4c801960ccf2-138" class="cls-4" d="M363.66,195.57a7.6,7.6,0,0,0-7-4.65H218a7.53,7.53,0,0,0-7.52,7.52v175.5a7.53,7.53,0,0,0,7.52,7.52H356.71a7.52,7.52,0,0,0,7.52-7.52V198.44a7.24,7.24,0,0,0-.57-2.87Zm-1.1,178.37a5.85,5.85,0,0,1-5.85,5.85H218a5.86,5.86,0,0,1-5.85-5.85V198.44a5.86,5.86,0,0,1,5.85-5.85H356.71a5.87,5.87,0,0,1,5.43,3.68,5.67,5.67,0,0,1,.22.66,5.5,5.5,0,0,1,.2,1.51Z"/><path id="fabca9b7-6499-499c-b0ba-e512eedfa0e6-139" class="cls-4" d="M334.71,232.35H292.92a3.34,3.34,0,0,1,0-6.68h41.79a3.34,3.34,0,1,1,0,6.68Z"/><path id="b1b2178d-f6c7-4a19-857a-cc93cc70df69-140" class="cls-4" d="M334.71,249.9H292.92a3.34,3.34,0,0,1,0-6.68h41.79a3.34,3.34,0,1,1,0,6.68Z"/><path id="bd84b5e9-e9c5-4886-bcfd-3c769a5bd20c-141" class="cls-5" d="M271.48,259.9H241a3.76,3.76,0,0,1-3.76-3.76v-36a3.76,3.76,0,0,1,3.76-3.76h30.53a3.76,3.76,0,0,1,3.76,3.76v36A3.76,3.76,0,0,1,271.48,259.9Z"/><path id="ad20b6ae-6256-4ad3-9ba5-bff6ef303c78-142" class="cls-2" d="M334.42,285.84H240a3.35,3.35,0,0,1,0-6.69h94.44a3.35,3.35,0,0,1,0,6.69Z"/><path id="f5b31b5a-d389-4394-a0c3-430493f21651-143" class="cls-2" d="M334.42,303.39H240a3.35,3.35,0,0,1,0-6.69h94.44a3.35,3.35,0,0,1,0,6.69Z"/><path id="e6b00d4f-f233-434b-82e7-f520ed55a592-144" class="cls-2" d="M334.42,320.94H240a3.35,3.35,0,0,1,0-6.69h94.44a3.35,3.35,0,0,1,0,6.69Z"/><path id="f83e6214-6629-4e95-ad35-3c9b0c78a3d6-145" class="cls-2" d="M334.42,338.49H240a3.35,3.35,0,0,1,0-6.69h94.44a3.35,3.35,0,0,1,0,6.69Z"/><path id="b83f14e7-a754-4235-a578-aebf681d4a1c-146" class="cls-2" d="M334.42,356H240a3.35,3.35,0,0,1,0-6.69h94.44a3.35,3.35,0,0,1,0,6.69Z"/><path id="a38c097c-1c01-4356-80b1-56a89c2c58fa-147" class="cls-4" d="M640,437.46H835a1,1,0,0,0,0-2H640a1,1,0,0,0,0,2Z"/><circle id="af1d3ae0-b86a-44f8-8168-f2f371efc620" class="cls-5" cx="289.7" cy="116.37" r="32.26"/><path id="b4906b3b-71df-4c7e-84d8-52e6769e6d26-148" class="cls-6" d="M286.5,128.68a3.31,3.31,0,0,1-2-.67l0,0-7.58-5.8a3.37,3.37,0,1,1,4.09-5.35h0l4.91,3.76,11.6-15.14a3.38,3.38,0,0,1,4.73-.62h0l-.07.1.07-.1a3.37,3.37,0,0,1,.62,4.72l-13.65,17.8a3.39,3.39,0,0,1-2.68,1.32Z"/><circle id="eb67bc87-0ab3-400d-9346-8836e9b135a0" class="cls-2" cx="77.3" cy="79.77" r="21.86"/><path id="a587243e-22a7-4e92-b127-7238b8715868-149" class="cls-6" d="M75.13,88.11a2.29,2.29,0,0,1-1.36-.45l0,0L68.6,83.71a2.29,2.29,0,0,1,2.78-3.63l3.33,2.55,7.86-10.25a2.28,2.28,0,0,1,3.2-.42h0l0,.06,0-.06a2.28,2.28,0,0,1,.42,3.2L76.94,87.22a2.25,2.25,0,0,1-1.81.89Z"/><path id="b24c2fd4-5735-4a8b-b246-c12b52e11f5f-150" class="cls-2" d="M138.73,131a6,6,0,0,0-5.47-3.66H24.1a5.92,5.92,0,0,0-5.91,5.92V271.38a5.92,5.92,0,0,0,5.91,5.92H133.26a5.92,5.92,0,0,0,5.92-5.92V133.29A5.88,5.88,0,0,0,138.73,131Zm-.86,140.35a4.61,4.61,0,0,1-4.6,4.6H24.1a4.59,4.59,0,0,1-4.6-4.6h0V133.29a4.61,4.61,0,0,1,4.6-4.6H133.26a4.63,4.63,0,0,1,4.28,2.9c.06.17.12.34.17.52a4.8,4.8,0,0,1,.16,1.19Z"/><path id="f030a160-4767-48dc-a1cd-6e8d6a87c559-151" class="cls-2" d="M116,160H83.07a2.63,2.63,0,0,1,0-5.26H116a2.63,2.63,0,0,1,0,5.26Z"/><path id="f0576b91-fb67-46c0-9bc8-b0d78fa4e393-152" class="cls-2" d="M116,173.79H83.07a2.63,2.63,0,1,1,0-5.26H116a2.63,2.63,0,0,1,0,5.26Z"/><path id="bb47cdff-cafb-4bb6-bfa7-d7f244c106f8-153" class="cls-2" d="M66.2,181.65h-24a3,3,0,0,1-3-3V150.34a3,3,0,0,1,3-3h24a3,3,0,0,1,3,3v28.35A3,3,0,0,1,66.2,181.65Z"/><path id="b9c4730d-541e-403a-bfc4-7f597a133cff-154" class="cls-2" d="M115.72,202.06H41.41a2.63,2.63,0,0,1,0-5.26h74.31a2.63,2.63,0,0,1,0,5.26Z"/><path id="b0b4ad5b-1090-4149-ad9f-38443074182d-155" class="cls-2" d="M115.72,215.88H41.41a2.63,2.63,0,0,1,0-5.26h74.31a2.63,2.63,0,0,1,0,5.26Z"/><path id="a36ae105-a865-43f2-a38b-4a3728e49bb5-156" class="cls-2" d="M115.72,229.68H41.41a2.63,2.63,0,1,1,0-5.26h74.31a2.63,2.63,0,0,1,0,5.26Z"/><path id="bd69ee89-5535-4e79-aba4-c83b03de0083-157" class="cls-2" d="M115.72,243.5H41.41a2.64,2.64,0,0,1,0-5.27h74.31a2.64,2.64,0,0,1,0,5.27Z"/><path id="a075ca9b-1e14-49c6-b2ff-3fb4066a82fb-158" class="cls-2" d="M115.72,257.3H41.41a2.63,2.63,0,1,1,0-5.26h74.31a2.63,2.63,0,0,1,0,5.26Z"/><path id="b99f005d-5535-4af5-95d9-44a7a4f0c0b8-159" class="cls-2" d="M.79,277.88H154.23a.79.79,0,0,0,0-1.58H.79a.79.79,0,0,0,0,1.58Z"/><circle id="b1c5fac5-a790-403a-b8d0-31ae0bc4b4ba" class="cls-2" cx="497.3" cy="79.77" r="21.86" transform="translate(338.9 557.87) rotate(-80.78)"/><path id="a5ae1e6c-de0b-426c-a811-1990f7b7ccda-160" class="cls-6" d="M495.13,88.11a2.29,2.29,0,0,1-1.36-.45l0,0-5.14-3.93a2.29,2.29,0,0,1,2.78-3.63l3.33,2.55,7.86-10.25a2.28,2.28,0,0,1,3.2-.42h0l0,.06,0-.06a2.28,2.28,0,0,1,.42,3.2l-9.25,12.06a2.25,2.25,0,0,1-1.81.89Z"/><path id="e481f25f-f0ef-423d-9e4a-b2d79b6febf5-161" class="cls-2" d="M558.73,131a6,6,0,0,0-5.47-3.66H444.1a5.92,5.92,0,0,0-5.91,5.92V271.38a5.92,5.92,0,0,0,5.91,5.92H553.26a5.92,5.92,0,0,0,5.92-5.92V133.29A5.88,5.88,0,0,0,558.73,131Zm-.86,140.35a4.61,4.61,0,0,1-4.6,4.6H444.1a4.59,4.59,0,0,1-4.6-4.6h0V133.29a4.61,4.61,0,0,1,4.6-4.6H553.26a4.63,4.63,0,0,1,4.28,2.9c.06.17.12.34.17.52a4.8,4.8,0,0,1,.16,1.19Z"/><path id="a5b052e7-0a6d-48d5-ba9e-291ff1ca3bfd-162" class="cls-2" d="M536,160H503.07a2.63,2.63,0,0,1,0-5.26H536a2.63,2.63,0,0,1,0,5.26Z"/><path id="bd247f09-cb3d-4df5-9c12-787ea9e72b07-163" class="cls-2" d="M536,173.79H503.07a2.63,2.63,0,1,1,0-5.26H536a2.63,2.63,0,0,1,0,5.26Z"/><path id="b3d7a89f-9ffc-4079-aa15-40ad611f9a98-164" class="cls-2" d="M486.2,181.65h-24a3,3,0,0,1-3-3V150.34a3,3,0,0,1,3-3h24a3,3,0,0,1,3,3v28.35A3,3,0,0,1,486.2,181.65Z"/><path id="e1bf4aca-fc8d-43da-a727-289201e2eac7-165" class="cls-2" d="M535.72,202.06H461.41a2.63,2.63,0,0,1,0-5.26h74.31a2.63,2.63,0,0,1,0,5.26Z"/><path id="b286f981-abb8-47cd-9209-f09770ef33ad-166" class="cls-2" d="M535.72,215.88H461.41a2.63,2.63,0,0,1,0-5.26h74.31a2.63,2.63,0,0,1,0,5.26Z"/><path id="ad15bc08-a918-4115-a327-9a31c97a6753-167" class="cls-2" d="M535.72,229.68H461.41a2.63,2.63,0,0,1,0-5.26h74.31a2.63,2.63,0,0,1,0,5.26Z"/><path id="a508ff04-1989-4f94-915f-90cf16933556-168" class="cls-2" d="M535.72,243.5H461.41a2.64,2.64,0,0,1,0-5.27h74.31a2.64,2.64,0,0,1,0,5.27Z"/><path id="e65b0501-2d31-4d85-b27f-ea92835ed026-169" class="cls-2" d="M535.72,257.3H461.41a2.63,2.63,0,0,1,0-5.26h74.31a2.63,2.63,0,0,1,0,5.26Z"/><path id="a3e956aa-8abe-48aa-ba4a-17518f20fda0-170" class="cls-2" d="M420.79,277.88H574.23a.79.79,0,0,0,0-1.58H420.79a.79.79,0,0,0,0,1.58h0Z"/><path id="b01c4841-6b77-41d3-9bc6-bba4643c130f-171" class="cls-4" d="M189,382.06H384a1,1,0,0,0,0-2H189a1,1,0,1,0,0,2Z"/></svg>