<svg id="Layer_1" data-name="Layer 1" xmlns="http://www.w3.org/2000/svg" viewBox="0 0 785.17 507.75"><defs><style>.cls-1,.cls-10{fill:#0053c5;}.cls-2{fill:#e6e6e6;}.cls-3{fill:#fff;}.cls-4{fill:#e4e4e4;}.cls-5{fill:#ffb8b8;}.cls-6{fill:#f0f0f0;}.cls-7{fill:#2f2e41;}.cls-8{fill:#ccc;}.cls-9{opacity:0.75;}.cls-10{opacity:0.5;}</style></defs><path class="cls-1" d="M559.34,314.21c-80.77,0-151-60.25-161.43-142.44l2-.25c10.26,81.17,79.68,140.69,159.45,140.69a161.81,161.81,0,0,0,20.28-1.28c88-11.11,150.52-91.74,139.41-179.72l2-.25c11.26,89.08-52.06,170.7-141.14,182A163.78,163.78,0,0,1,559.34,314.21Z"/><path class="cls-1" d="M612.42,80.64A56.08,56.08,0,0,1,717.33,41l-1.87.71A54.08,54.08,0,0,0,614.29,79.93Z"/><path class="cls-2" d="M774.89,142.65H673.22c-5.67,0-10.27-3.54-10.27-7.9V31.26c0-4.36,4.6-7.89,10.27-7.9H774.89c5.67,0,10.27,3.54,10.28,7.9V134.75C785.16,139.11,780.56,142.64,774.89,142.65Z"/><path class="cls-3" d="M734.5,136.45H680.37c-5.31,0-9.62-3.32-9.62-7.4V37c0-4.09,4.31-7.4,9.62-7.4h87.37c5.32,0,9.62,3.31,9.63,7.4v66.53C777.34,121.68,758.16,136.43,734.5,136.45Z"/><path class="cls-1" d="M388.09,174A94,94,0,0,1,564,107.48l-1.87.71a92,92,0,1,0-172.18,65.05l0,.07Z"/><circle class="cls-2" cx="562.91" cy="11.14" r="9.55"/><circle class="cls-2" cx="575.91" cy="286.14" r="9.55"/><circle class="cls-2" cx="330.91" cy="59.14" r="9.55"/><path class="cls-2" d="M462.7,352.4H244.17c-12.2,0-22.08-7.6-22.09-17V113c0-9.38,9.89-17,22.09-17H462.7c12.19,0,22.08,7.61,22.09,17V335.42C484.78,344.8,474.89,352.39,462.7,352.4Z"/><path class="cls-3" d="M379.29,338.64H259.53c-11.11,0-20.1-6.93-20.12-15.47V125.23c0-8.54,9-15.46,20.12-15.47H447.34c11.1,0,20.1,6.93,20.11,15.47V270.86C467.4,308.28,428,338.59,379.29,338.64Z"/><path class="cls-4" d="M343.43,382.59H278.26a4.9,4.9,0,0,1,0-9.8h65.17a4.9,4.9,0,1,1,0,9.8Z"/><path class="cls-2" d="M631.08,187.23H520.41c-6.18,0-11.18-3.85-11.19-8.6V66c0-4.75,5-8.59,11.19-8.6H631.08c6.17,0,11.18,3.85,11.18,8.6V178.63C642.26,183.38,637.25,187.23,631.08,187.23Z"/><path class="cls-3" d="M590.05,180.45H528.19c-5.76,0-10.43-3.59-10.44-8V72.19c0-4.43,4.68-8,10.44-8H623.3c5.76,0,10.42,3.59,10.43,8v74.68C633.7,165.41,614.16,180.43,590.05,180.45Z"/><path class="cls-5" d="M129.4,286.88a8.58,8.58,0,0,0-.51-12.11,9.55,9.55,0,0,0-1.2-.92l7-29.62-14.86,5.43L115.46,277a8.62,8.62,0,0,0,13.94,9.92Z"/><path class="cls-1" d="M165.13,162.75l-6,15.33s2.56,15.34-1.7,18.74-2.56,3.41-2.56,6a13.09,13.09,0,0,1-5.11,9.37c-3.4,2.55-18.74,54.52-18.74,54.52H115.72a48.59,48.59,0,0,0,0-11.93c-.85-6,2.55-21.3,4.26-23.85s0-6,0-11.08,3.4-7.66,3.4-16.18,10.23-75,9.38-82.63,8.51-14.49,8.51-14.49h8.52Z"/><polygon class="cls-1" points="201.21 195.27 215.38 258.52 124.56 252.87 149.25 190.75 201.21 195.27"/><path class="cls-6" d="M3.23,433a97.08,97.08,0,0,0,12.51,27.53c12.48,18.87,30.34,33.3,50,44.85,1.36.81,2.74,1.6,4.12,2.38H83.6l.48-1.1h0l.56-1.27.07-.15,0,.15.55,2.38h6.76c.56-.79,1.11-1.58,1.65-2.38.79-1.17,1.55-2.35,2.27-3.55a54.49,54.49,0,0,0,3.4-6.52c.12-.25.22-.5.32-.75l-.45-.49,1.87-8.18-3.76-.62,4.12-12.71c-.15-.47-.32-.94-.5-1.41-2.31-5.85-6.65-10.22-11.8-13.89-5.3-3.79-11.47-6.83-17.14-10-2.66-1.49-5.28-3.06-7.83-4.72h0q-4.89-3.16-9.49-6.77l-.15-.11-.12-.1a141,141,0,0,1-34.31-38.93h0c-.3-.48-.58-1-.86-1.45h0A136.82,136.82,0,0,1,9.85,375.5h0c-.2-.5-.38-1-.57-1.5q-.39.66-.75,1.32h0C-1.18,392.67-2.1,413.57,3.23,433Z"/><path class="cls-3" d="M8.52,375.32A122.65,122.65,0,0,0,24.88,437.7c.23.39.45.77.69,1.15h0a100.75,100.75,0,0,0,5.75,8.66A47.9,47.9,0,0,0,42.72,459a30,30,0,0,0,12,4.63c.8.15,1.62.26,2.45.36,3.31.39,6.73.54,10,1.24A21.87,21.87,0,0,1,72,466.76c5.28,2.45,8.25,7.58,9.55,13.06.23,1,.41,1.93.55,2.9,1.09,7.45-.11,15.19.51,22.65.07.79.16,1.59.27,2.38h.74l.48-1.1h0c0-.42-.09-.84-.13-1.27a96.28,96.28,0,0,1-.09-11c0-1.65.07-3.31,0-5,0-1.33-.07-2.66-.17-4h0c-.07-.82-.15-1.63-.26-2.44a30.83,30.83,0,0,0-1.82-7.25A18.15,18.15,0,0,0,71.34,465a27.43,27.43,0,0,0-4.47-1.25c-3.35-.64-6.81-.8-10.18-1.22-.36,0-.72-.09-1.07-.15l-1.33-.23a28.61,28.61,0,0,1-12.16-5.27,51.88,51.88,0,0,1-11-11.92c-1.64-2.35-3.2-4.75-4.65-7.22h0l-.21-.35v0a119.68,119.68,0,0,1-13.46-34.17c-.09-.44-.19-.88-.29-1.32a121.26,121.26,0,0,1-2.67-26.4h0c0-.42,0-.83,0-1.25,0-.86-1.31-1.05-1.33-.19,0,.42,0,.84,0,1.26Z"/><path class="cls-3" d="M26.15,438.58a18,18,0,0,1-22.7-5.41c-.51-.7.56-1.53,1.06-.83a16.69,16.69,0,0,0,21.13,5C26.4,436.94,26.91,438.19,26.15,438.58Z"/><path class="cls-3" d="M54.17,462.58a34.78,34.78,0,0,0-1.23-25.28c-.36-.79.89-1.3,1.24-.51a36.14,36.14,0,0,1,1.23,26.31c-.28.82-1.52.3-1.24-.52Z"/><path class="cls-3" d="M12.14,402a10.2,10.2,0,0,0,7-6.66c.27-.83,1.51-.3,1.24.52a11.42,11.42,0,0,1-7.75,7.38.69.69,0,0,1-.88-.37.67.67,0,0,1,.37-.87Z"/><path class="cls-6" d="M64.2,442.53h0a131.79,131.79,0,0,0,2.67,21.24h0c.08.48.19.95.29,1.42a185.23,185.23,0,0,0,10.11,31.61q1.78,4.32,3.74,8.55c.36.8.73,1.59,1.11,2.38H83.6l.48-1.1h0l.56-1.27.07-.15,0,.15.55,2.38h14.3l2.78-2.38,4-3.47-5.66-6.18-.93-1-.14-.15-.45-.49,1.87-8.18-3.76-.62,4.12-12.71,2-6,.49-1.51,2.85-8.79,8.6,1.61,1.4-4.9a136.89,136.89,0,0,1-6.42-18.41c0-.05,0-.09,0-.14a141.8,141.8,0,0,1-4-52h0c.06-.56.13-1.13.21-1.68v0a135.19,135.19,0,0,1,4.32-21.34c.14-.53.3-1.05.45-1.57l-1.37.59h0c-.73.32-1.46.66-2.17,1C90.63,367.73,78.08,383.29,71,401.23l-.06.14a96.69,96.69,0,0,0-6.57,29.43A114.75,114.75,0,0,0,64.2,442.53Z"/><path class="cls-3" d="M90.15,507.75h1.58c.5-.81,1-1.6,1.58-2.38q1.29-1.81,2.66-3.55l2.37-3c.82-1,1.63-2.06,2.42-3.12l-.93-1-.46.6c-2.56,3.37-5.33,6.61-7.7,10.07C91.14,506.15,90.63,506.94,90.15,507.75Z"/><path class="cls-3" d="M111.6,358.38c-.26.33-.53.67-.78,1q-2.92,3.8-5.53,7.83a117.43,117.43,0,0,0-8.22,14.85c-.19.4-.38.81-.56,1.22a118.88,118.88,0,0,0-9.84,35.44c0,.12,0,.23,0,.35-.33,2.86-.55,5.73-.64,8.61a51.48,51.48,0,0,0,1.59,16.12c.2.69.42,1.37.66,2a26.58,26.58,0,0,0,2.25,4.65,26.16,26.16,0,0,0,2.14,3.09c.47.6,1,1.19,1.48,1.76l.92,1,.77.76c2.7,2.62,5.68,5.05,8.12,7.94l-.49,1.51c-2.35-3-5.38-5.45-8.11-8.05a37.08,37.08,0,0,1-4.66-5.28c-.18-.26-.37-.52-.54-.79a26.08,26.08,0,0,1-2.39-4.29c-.34-.75-.65-1.52-.93-2.32a47.67,47.67,0,0,1-2.2-16,103.08,103.08,0,0,1,.62-10.39c0-.45.09-.89.15-1.34a121.2,121.2,0,0,1,5.52-24.14,122.46,122.46,0,0,1,13.76-28.18q2.47-3.76,5.25-7.35c.24-.33.49-.65.75-1C111.18,356.75,112.13,357.7,111.6,358.38Z"/><path class="cls-3" d="M85.84,419.55a18,18,0,0,1-14.86-18,.68.68,0,0,1,1.35,0,16.68,16.68,0,0,0,13.85,16.7c.86.15.51,1.45-.34,1.3Z"/><path class="cls-3" d="M93.77,455.58A34.66,34.66,0,0,0,108,434.66a.67.67,0,0,1,1.3.34,36.08,36.08,0,0,1-14.86,21.74c-.71.49-1.39-.67-.67-1.16Z"/><path class="cls-3" d="M96.67,381.93a10.17,10.17,0,0,0,9.61-1.09c.71-.5,1.39.67.68,1.16a11.41,11.41,0,0,1-10.63,1.23.7.7,0,0,1-.48-.82.67.67,0,0,1,.82-.48Z"/><polygon class="cls-5" points="186.08 487.19 196.28 487.19 201.14 447.84 186.08 447.84 186.08 487.19"/><path class="cls-7" d="M182.63,482.16l16.12-1v6.91l15.34,10.59a4.31,4.31,0,0,1-2.45,7.86H192.43l-3.3-6.83-1.3,6.83h-7.24Z"/><polygon class="cls-5" points="89.66 482.12 99.63 484.28 112.71 446.85 98 443.66 89.66 482.12"/><path class="cls-7" d="M87.35,476.47l16,2.47-1.46,6.76,12.74,13.6a4.32,4.32,0,0,1-4.07,7.17l-18.76-4.08L90,495l-2.71,6.41-7.07-1.54Z"/><path class="cls-8" d="M17.8,506.56A1.19,1.19,0,0,0,19,507.75H299.28a1.19,1.19,0,1,0,0-2.38H19a1.2,1.2,0,0,0-1.19,1.19Z"/><path class="cls-7" d="M217.7,311.41c-7.16,39.35-8.95,56.34-8.95,56.34s5.37,6.26,1.79,9.84,0,10.73,0,10.73l-9.37,74.84-2,11-18.77-2.65,2.77-10.35-4.82-71.94s-3.58-7.16-1.79-9-1.79-12.52-1.79-12.52l-4.47-85-27.73,93s2.69,3.58,0,6.26-8,16.1-8,16.1l-20.36,54-4,8-2.13-1-9.36-1.76L97,457.07l-3.06-.58-2-.37-.67-.12L88,455.39,89,451l7.17-10.88,7.29-53.37.32-1.43.34-1.51s-1.79-4.47.89-7.16a7,7,0,0,0,1.79-6.26,1.76,1.76,0,0,1-.24-.3,3.55,3.55,0,0,1-.64-1.46c-.24-1.12,0-2.69,1.78-4.5a7.44,7.44,0,0,0,1.27-1.82c2.72-5.15,4.09-16.06,4.09-16.06s2.42-86.41,10.34-99.61c.42-.69,8.83-13.94,9.27-14.21,8.94-5.36,78.71,1.05,78.71,1.05s4.22,11.33,4.41,12.51C216.82,252.66,223.77,278,217.7,311.41Z"/><path class="cls-5" d="M290.1,119.3a8.57,8.57,0,0,1-11.05,7.1L261,150.89,255.52,136l18-21a8.61,8.61,0,0,1,16.57,4.24Z"/><path class="cls-1" d="M125.06,223c-1.66,0-2.6-.32-3-1-.54-1,.39-2.36,1.46-3.91a12,12,0,0,0,1.87-3.35c.64-2.58,5-67.55,2.38-80.53-.6-3-.08-6.86,1.54-11.45,4.42-12.53,10.46-16.39,22.49-24.06l3.06-2c1.36-.88,1.29-3.79,1.21-6.88-.09-3.43-.19-7,1.49-9.19l.11-.15.18,0c4.06-.94,17.73-2.68,25.83,0l.11,0,.08.08c1.93,1.93,2.1,5.65,2.27,9.25.14,3,.27,5.75,1.36,7,8.31,9.27,17.75,9.09,17.84,9.08h.47l.05.46c3.61,36.8,9.45,92.34,10.69,94.53a.65.65,0,0,1,0,.67C214.79,205,131.31,223,125.06,223Z"/><circle class="cls-5" cx="179.38" cy="45.4" r="24.67"/><path class="cls-7" d="M195.86,90.49c-1.16-1.67-7.1-22.07-9.69-28.33-.27,1.35-3.25,6.56-3.32,8l0,.51-.51.07c-.76.1-18.91,2.3-28.35-8.41-5.59-6.34-6.86-15.85-3.77-28.27a4.75,4.75,0,0,1-1.59-.62,6.77,6.77,0,0,1-2.91-4.95l-.53.14c-2.66.71-5.66,1.67-7.6,3.86-2.16,2.44-2.55,5.75-2.95,9.26a41.62,41.62,0,0,1-.79,5c-1.32,5.31-5,10.28-11,14.78s-12.18,7.12-18.27,7.7c-7.2.68-14.14-1.68-18.57-6.33C81,57.66,79.75,49.69,82.91,43.9l.5-.94.56.91c2.81,4.56,8.94,7,14.92,6C104,49,109.1,45.71,113.2,40.69c3.75-4.59,6.33-10,8.82-15.24s5.17-10.83,9-15.5c4.27-5.28,9.6-8.72,15-9.7,3.93-.71,7.44.1,9.63,2.22a9.16,9.16,0,0,1,2.58,5.91,7.44,7.44,0,0,1,4,.23,7.53,7.53,0,0,1,4.64,6.15c7.93-4.17,18.42-3.49,23.85-.36,2.27,1.31,3.57,3,3.8,4.8,6.41.36,13.31,6.6,13.31,15.45v.61h-.62c-5.07,0-9.7,2.92-12.39,7.81a18.09,18.09,0,0,0,.56,18.48A26.13,26.13,0,0,1,199,81.48l-2.32,10.14Z"/><path class="cls-1" d="M224.18,182.74l-16.26-9.14c-28.35-19.66-35.34-35.27-36.21-44.9-.93-10.28,4.55-15.91,4.78-16.14l.13-.09L191.27,105a14.75,14.75,0,0,1,19.85,6.42,14.55,14.55,0,0,1,.73,1.67l13.56,37.29,15-11.09,6.41-2.52,5.17-6.92,14.21-8.29,10.55,9.5-13.27,26.55-7.37,1.88-1.57,4-.14.09Z"/><g id="a63949a2-a794-48d0-a35a-8c12e4616a27" class="cls-9"><circle id="bdfdee77-367c-420e-9119-e33862087a46" class="cls-10" cx="306.34" cy="183.55" r="23.42" transform="translate(62.06 444.05) rotate(-77.77)"/><path id="f21c0c69-10dc-4e04-b124-1a0d4dcadc3b-173" class="cls-10" d="M379.11,256.39l-114.88-1.06a3,3,0,0,1-.43,0L319,161.68a3.81,3.81,0,0,1,6.62.06l35.88,63.5,1.72,3Z"/><path id="a63814cd-9c0a-4ddf-af41-edb1ac5f3322-174" class="cls-10" d="M443.07,257l-99.36-.93,19.51-27.78,1.4-2,25.43-36.21a5.07,5.07,0,0,1,7.14-.74,4.59,4.59,0,0,1,.41.36,3.64,3.64,0,0,1,.35.45Z"/></g><g id="a63949a2-a794-48d0-a35a-8c12e4616a27-2" data-name="a63949a2-a794-48d0-a35a-8c12e4616a27" class="cls-9"><circle id="bdfdee77-367c-420e-9119-e33862087a46-2" data-name="bdfdee77-367c-420e-9119-e33862087a46" class="cls-10" cx="553.61" cy="104.56" r="10.08" transform="translate(334.13 623.45) rotate(-77.77)"/><path id="f21c0c69-10dc-4e04-b124-1a0d4dcadc3b-173-2" data-name="f21c0c69-10dc-4e04-b124-1a0d4dcadc3b-173" class="cls-10" d="M584.92,135.91l-49.44-.46-.18,0,23.76-40.28a1.63,1.63,0,0,1,2.23-.6,1.61,1.61,0,0,1,.61.63l15.44,27.32.74,1.31Z"/><path id="a63814cd-9c0a-4ddf-af41-edb1ac5f3322-174-2" data-name="a63814cd-9c0a-4ddf-af41-edb1ac5f3322-174" class="cls-10" d="M612.44,136.16l-42.76-.39,8.4-12,.6-.86,11-15.58a2.18,2.18,0,0,1,3.07-.32,1.22,1.22,0,0,1,.17.15,1.56,1.56,0,0,1,.16.2Z"/></g><g id="a63949a2-a794-48d0-a35a-8c12e4616a27-3" data-name="a63949a2-a794-48d0-a35a-8c12e4616a27" class="cls-9"><circle id="bdfdee77-367c-420e-9119-e33862087a46-3" data-name="bdfdee77-367c-420e-9119-e33862087a46" class="cls-10" cx="703.79" cy="67.61" r="10.08" transform="translate(488.61 741.1) rotate(-77.77)"/><path id="f21c0c69-10dc-4e04-b124-1a0d4dcadc3b-173-3" data-name="f21c0c69-10dc-4e04-b124-1a0d4dcadc3b-173" class="cls-10" d="M735.1,99l-49.43-.46-.18,0L709.24,58.2a1.65,1.65,0,0,1,2.24-.6,1.61,1.61,0,0,1,.61.63l15.44,27.32.74,1.31Z"/><path id="a63814cd-9c0a-4ddf-af41-edb1ac5f3322-174-3" data-name="a63814cd-9c0a-4ddf-af41-edb1ac5f3322-174" class="cls-10" d="M762.63,99.21l-42.76-.4,8.4-12,.6-.86,10.94-15.59a2.2,2.2,0,0,1,3.08-.32,1.29,1.29,0,0,1,.17.16,1.25,1.25,0,0,1,.15.19Z"/></g></svg>