<svg xmlns="http://www.w3.org/2000/svg" viewBox="0 0 355.62 357.04"><defs><style>.cls-1{fill:#464646;stroke:#464646;stroke-miterlimit:10;stroke-width:12px;}</style></defs><g id="Layer_2" data-name="Layer 2"><g id="Layer_1-2" data-name="Layer 1"><path class="cls-1" d="M225.83,178.92q0,73.29,0,146.57c0,13.36-7.49,22.8-20,25.13-7.86,1.47-14.64-1-20.49-6.27q-21.9-19.69-43.78-39.41c-9.69-8.74-19.33-17.54-29.15-26.13a9.39,9.39,0,0,0-5.66-2.2c-24.78-.14-49.57-.49-74.34.05C16.46,277,5.87,264.88,6,250.2c.43-48.26.15-96.52.17-144.78,0-12.14,7.17-21.58,18.43-24.2a32.82,32.82,0,0,1,7.49-.61c24.9,0,49.8,0,74.7-.11a8.85,8.85,0,0,0,5.38-2Q148.61,46,184.83,13.2c7.84-7.08,16.65-9.29,26.49-5,10,4.32,14.49,12.43,14.5,23.11q0,62.33,0,124.66ZM201.06,29.75c-1.19,1-2,1.62-2.79,2.32q-36.84,33.15-73.6,66.36a18.82,18.82,0,0,1-13.6,5.2c-25.85-.12-51.7,0-77.56,0-1.38,0-2.75.13-4.14.21V253.52H33.8c25.49,0,51,.12,76.48-.08a20.79,20.79,0,0,1,15.14,5.89c24.33,22.16,48.86,44.11,73.33,66.12a27.08,27.08,0,0,0,2.31,1.68Z"/><path class="cls-1" d="M316.16,120.59q0,51-.07,102c0,2.75.84,3.89,3.43,4.77a44.56,44.56,0,0,1,.42,84.15c-3.06,1.07-3.95,2.44-3.86,5.57q.32,11.67-.08,23.34a11.3,11.3,0,0,1-21.15,4.79,17.59,17.59,0,0,1-1.61-7.22c-.2-7.42-.14-14.84,0-22.27,0-2.14-.68-3.05-2.77-3.78-18.79-6.61-30.7-23.18-30.68-42.44s11.73-35.65,30.41-42.2c3-1.05,3-2.7,3-5.08q0-100.56,0-201.13a35.15,35.15,0,0,1,.32-5.72,11.38,11.38,0,0,1,22.42.35,36.46,36.46,0,0,1,.23,5Q316.17,70.67,316.16,120.59ZM304.65,291.45a22,22,0,1,0-21.9-21.86A21.85,21.85,0,0,0,304.65,291.45Z"/></g></g></svg>