<svg width="12" height="12" viewBox="0 0 12 12" fill="none" xmlns="http://www.w3.org/2000/svg">
<path d="M6 2.14287L6.81943 3.72987L8.57143 3.98445L7.28571 5.14287L7.71429 6.85716L6 5.89287L4.28571 6.85716L4.71429 5.14287L3.42857 3.98445L5.22857 3.72987L6 2.14287Z" fill="#838282"/>
<path d="M6.744 11.5714L6 11.1429L7.71429 8.14287H10.2857C10.3983 8.14304 10.5099 8.12099 10.6139 8.07797C10.718 8.03496 10.8126 7.97183 10.8922 7.8922C10.9718 7.81257 11.0349 7.71802 11.078 7.61395C11.121 7.50988 11.143 7.39834 11.1429 7.28573V2.14287C11.143 2.03027 11.121 1.91873 11.078 1.81466C11.0349 1.71059 10.9718 1.61603 10.8922 1.53641C10.8126 1.45678 10.718 1.39365 10.6139 1.35063C10.5099 1.30762 10.3983 1.28556 10.2857 1.28573H1.71429C1.60168 1.28556 1.49014 1.30762 1.38607 1.35063C1.282 1.39365 1.18744 1.45678 1.10782 1.53641C1.02819 1.61603 0.96506 1.71059 0.922044 1.81466C0.879029 1.91873 0.856974 2.03027 0.857143 2.14287V7.28573C0.856974 7.39834 0.879029 7.50988 0.922044 7.61395C0.96506 7.71802 1.02819 7.81257 1.10782 7.8922C1.18744 7.97183 1.282 8.03496 1.38607 8.07797C1.49014 8.12099 1.60168 8.14304 1.71429 8.14287H5.57143V9.00002H1.71429C1.25963 9.00002 0.823594 8.81941 0.502103 8.49791C0.180612 8.17642 5.36029e-08 7.74039 5.36029e-08 7.28573V2.14287C-5.62523e-05 1.91774 0.0442466 1.69479 0.130378 1.48678C0.216509 1.27877 0.34278 1.08976 0.501977 0.930566C0.661175 0.771369 0.850178 0.645098 1.05819 0.558967C1.2662 0.472836 1.48915 0.428533 1.71429 0.428589H10.2857C10.5109 0.428533 10.7338 0.472836 10.9418 0.558967C11.1498 0.645098 11.3388 0.771369 11.498 0.930566C11.6572 1.08976 11.7835 1.27877 11.8696 1.48678C11.9558 1.69479 12.0001 1.91774 12 2.14287V7.28573C12 7.74039 11.8194 8.17642 11.4979 8.49791C11.1764 8.81941 10.7404 9.00002 10.2857 9.00002H8.21357L6.744 11.5714Z" fill="#838282"/>
</svg>
