<svg xmlns="http://www.w3.org/2000/svg" viewBox="0 0 369.04 369.04"><defs><style>.cls-1{fill:#464646;stroke:#464646;stroke-miterlimit:10;stroke-width:12px;}</style></defs><g id="Layer_2" data-name="Layer 2"><g id="Layer_1-2" data-name="Layer 1"><path class="cls-1" d="M105.37,134.94q0-56.91,0-113.83c0-12.39,2.64-15,15.11-15q113.83,0,227.67,0c11.89,0,14.77,2.78,14.78,14.37q.06,114.33,0,228.66c0,11.64-2.92,14.53-14.64,14.53q-113.83.06-227.67,0c-12.81,0-15.25-2.58-15.26-15.88Q105.35,191.36,105.37,134.94ZM342.6,243.4V26.54H125.91V243.4Z"/><path class="cls-1" d="M35.31,41c-4.78,4.56-8,9.24-12.4,11.35-3.68,1.74-9.8,2.12-13,.14C4.65,49.35,5,43.3,9.27,38.82,18.85,28.82,28.67,19,38.6,9.39,43.42,4.7,48.75,5,53.51,9.64c9.66,9.47,19.25,19,28.68,28.7,4.25,4.37,4.84,9.48.38,14.08s-9.57,4.25-14,0c-3.58-3.38-6.6-7.36-11.79-13.26V227l1.86,2c3.28-3.91,6.26-8.12,9.9-11.65,4.4-4.27,9.56-4.61,14,0s3.93,9.7-.32,14.08c-9.41,9.71-19,19.24-28.66,28.71-5.18,5.08-10.58,4.73-15.65-.3-9.36-9.29-18.73-18.58-28-28-4.59-4.69-5.35-10-.35-14.8,4.62-4.43,9.82-3.71,14,.66,3.38,3.51,6,7.71,9,11.6l2.65-1.94Z"/><path class="cls-1" d="M139.77,336.42c3.9,3,8.11,5.6,11.62,9,4.38,4.21,5.05,9.37.64,14s-9.58,4.54-14,.26c-10-9.6-20.18-19.08-29.11-29.6-2.38-2.8-2.54-10.92-.24-13.65,8.9-10.55,19.11-20,29-29.67,4.38-4.26,9.52-4.77,14.08-.28s4.15,9.62-.09,14.05c-3.4,3.56-7.4,6.55-10,11.79H326.3l1.88-1.86c-3.66-3.07-7.55-5.92-10.95-9.26-4.66-4.57-5.61-9.91-.63-14.76s10.22-3.53,14.81,1c9.37,9.3,18.73,18.6,28,28,4.68,4.77,5,10.09.28,14.92-9.65,9.93-19.43,19.75-29.43,29.34-4.47,4.29-10.5,4.69-13.71-.53-2-3.24-1.68-9.37.06-13,2.1-4.44,6.8-7.64,11.41-12.47H142.25Z"/></g></g></svg>